<?xml version="1.0" standalone="no"?><!DOCTYPE svg PUBLIC "-//W3C//DTD SVG 1.1//EN" "http://www.w3.org/Graphics/SVG/1.1/DTD/svg11.dtd"><svg t="1780900985859" class="icon" viewBox="0 0 1024 1024" version="1.1" xmlns="http://www.w3.org/2000/svg" p-id="36202" xmlns:xlink="http://www.w3.org/1999/xlink" width="200" height="200"><path d="M144.64130987 760.9652416V114.94764907h596.32393173v366.2422816a478.54995413 478.54995413 0 0 1 99.3873216 36.27637226V114.94764907a99.3873216 99.3873216 0 0 0-99.3873216-99.3873216H144.64130987a99.3873216 99.3873216 0 0 0-99.3873216 99.3873216v646.01759253a99.3873216 99.3873216 0 0 0 99.3873216 99.3873216h33.29475307A171.9400672 171.9400672 0 0 1 144.64130987 760.9652416z" p-id="36203" fill="currentColor"></path><path d="M591.88425813 512.49693653c-219.6459808 0-397.54928747 111.31380053-397.54928746 248.46830507s177.9033056 248.468304 397.54928746 248.468304 397.54928747-111.31380053 397.54928747-248.468304-177.9033056-248.468304-397.54928747-248.46830507z m0 397.54928747c-170.44925653 0-298.16196587-78.515984-298.1619648-149.0809824 0-52.17834347 70.06806187-108.82911787 175.91555948-134.66982187A149.0809824 149.0809824 0 1 0 740.9652416 711.27157973a94.4179552 94.4179552 0 0 0 0-12.4234144 74.54049173 74.54049173 0 1 1-92.43021013-83.98228693 461.65410987 461.65410987 0 0 1 61.12320321 9.93873173 77.52211093 77.52211093 0 0 1 9.93873279 7.9509856c0-2.48468267-3.97549333-4.47242987-5.46630294-6.95711253C818.98428907 651.6391872 890.046224 708.28996053 890.046224 760.9652416c0 70.5649984-127.71270827 149.0809824-298.16196587 149.0809824z" p-id="36204" fill="currentColor"></path></svg>