<?xml version="1.0" standalone="no"?><!DOCTYPE svg PUBLIC "-//W3C//DTD SVG 1.1//EN" "http://www.w3.org/Graphics/SVG/1.1/DTD/svg11.dtd"><svg t="1780900795828" class="icon" viewBox="0 0 1024 1024" version="1.1" xmlns="http://www.w3.org/2000/svg" p-id="24059" xmlns:xlink="http://www.w3.org/1999/xlink" width="200" height="200"><path d="M825.6 129.5872c37.4272 0 68.1984 28.5696 71.68 65.0752l0.3072 6.9632v239.9744a24.0128 24.0128 0 0 1-47.616 4.3008l-0.3584-4.3008V201.5744a24.0128 24.0128 0 0 0-19.712-23.552l-4.3008-0.4096H201.5744a24.0128 24.0128 0 0 0-23.552 19.6608l-0.4096 4.3008v624.0256c0 11.776 8.4992 21.6064 19.6608 23.6032l4.3008 0.4096h192.8192a24.0128 24.0128 0 0 1 4.3008 47.616l-4.3008 0.3584H201.5744a71.9872 71.9872 0 0 1-71.68-65.024l-0.3072-6.9632V201.5744c0-37.376 28.5696-68.1472 65.0752-71.68l6.912-0.3072h624.0256zM873.6256 602.2144c11.776 0 21.5552 8.4992 23.552 19.712l0.4096 4.3008v227.328a43.008 43.008 0 0 1-37.5808 42.7008l-5.4272 0.3072h-227.2768a24.0128 24.0128 0 0 1-4.3008-47.616l4.3008-0.3584h222.208l0.1024-222.3616c0-11.776 8.4992-21.5552 19.6608-23.6032l4.3008-0.4096z" fill="currentColor" p-id="24060"></path><path d="M873.6256 602.2144a24.0128 24.0128 0 0 1 4.3008 47.616l-4.3008 0.4096H417.536a24.0128 24.0128 0 0 1-4.3008-47.616l4.3008-0.4096h455.9872z" fill="currentColor" p-id="24061"></path><path d="M388.608 643.3792a24.0128 24.0128 0 0 1-2.7648-30.6176l2.7648-3.328 101.888-101.8368a24.0128 24.0128 0 0 1 36.6592 30.6176l-2.7648 3.328-84.8384 84.8896 84.8384 84.8384c8.3456 8.2944 9.216 21.248 2.7648 30.6176l-2.7648 3.328a24.0128 24.0128 0 0 1-30.6176 2.7648l-3.328-2.7648-101.8368-101.888z" fill="currentColor" p-id="24062"></path></svg>