<?xml version="1.0" standalone="no"?><!DOCTYPE svg PUBLIC "-//W3C//DTD SVG 1.1//EN" "http://www.w3.org/Graphics/SVG/1.1/DTD/svg11.dtd"><svg t="1780900932555" class="icon" viewBox="0 0 1024 1024" version="1.1" xmlns="http://www.w3.org/2000/svg" p-id="33494" xmlns:xlink="http://www.w3.org/1999/xlink" width="200" height="200"><path d="M928 640a256 256 0 0 0-158.144-236.544l0.16 0.064v-211.52h-192v-64h-64v64h-160v-64h-64v64h-192v704h672v-19.52l-0.16 0.064a256 256 0 0 0 158.144-236.544z m-766.016-384h128v64h64v-64h160v64h64v-64h128v128h-544v-128z m560.768 133.088c-1.248-0.256-2.528-0.352-3.808-0.576 1.28 0.224 2.56 0.32 3.808 0.576z m-560.768 58.912h341.056c-53.28 46.912-87.072 115.424-87.072 192s33.792 145.088 87.072 192h-341.056v-384z m475.136-61.344c-4.768 0.64-9.568 1.248-14.272 2.176 4.704-0.928 9.504-1.536 14.272-2.176z m-26.848 5.152c-3.488 0.864-7.008 1.664-10.464 2.688 3.456-1.024 6.976-1.824 10.464-2.688z m-24.704 7.488c-2.56 0.928-5.12 1.792-7.648 2.784 2.528-0.992 5.088-1.888 7.648-2.784z m-23.072 9.568a261.952 261.952 0 0 0-5.216 2.528c1.728-0.896 3.456-1.696 5.216-2.528z m-21.44 11.456l-3.168 1.92 3.168-1.92z m-19.84 13.12l-1.408 1.056 1.408-1.056z m101.632 457.728c4.704 0.928 9.504 1.536 14.272 2.176-4.768-0.64-9.568-1.248-14.272-2.176z m-103.04-45.664l1.408 1.056-1.408-1.056z m18.08 12.256l3.168 1.92-3.168-1.92z m19.392 10.848l5.216 2.528c-1.76-0.832-3.488-1.632-5.216-2.528z m20.64 9.312z m21.888 7.584c3.424 1.024 6.944 1.824 10.464 2.688-3.488-0.864-7.008-1.664-10.464-2.688z m119.168 6.016c1.248-0.224 2.56-0.32 3.808-0.576-1.28 0.224-2.56 0.32-3.808 0.576z m-46.976-59.52a192 192 0 1 1 0-384 192 192 0 0 1 0 384z" p-id="33495" fill="currentColor"></path><path d="M704 512h-64v160h129.984v-64h-65.984z" p-id="33496" fill="currentColor"></path></svg>