<?xml version="1.0" standalone="no"?><!DOCTYPE svg PUBLIC "-//W3C//DTD SVG 1.1//EN" "http://www.w3.org/Graphics/SVG/1.1/DTD/svg11.dtd"><svg t="1780900901966" class="icon" viewBox="0 0 1024 1024" version="1.1" xmlns="http://www.w3.org/2000/svg" p-id="32359" xmlns:xlink="http://www.w3.org/1999/xlink" width="200" height="200"><path d="M192 512l216.533333 216.533333a33.92 33.92 0 1 1-48 48.213334L120.106667 536.32a34.346667 34.346667 0 0 1 0-48.213333L360.533333 247.68a33.92 33.92 0 1 1 48 48.213333z m640 0L615.466667 295.893333a33.92 33.92 0 1 1 48-48.213333l240.426666 240.426667a34.346667 34.346667 0 0 1 0 48.213333L663.466667 776.746667a33.92 33.92 0 1 1-48-48.213334zM565.12 210.773333a33.706667 33.706667 0 0 1 27.52 39.466667l-94.293333 535.893333a33.92 33.92 0 0 1-66.986667-11.946666l94.293333-535.68a34.133333 34.133333 0 0 1 39.466667-27.733334z" p-id="32360" fill="currentColor"></path></svg>