<?xml version="1.0" standalone="no"?><!DOCTYPE svg PUBLIC "-//W3C//DTD SVG 1.1//EN" "http://www.w3.org/Graphics/SVG/1.1/DTD/svg11.dtd"><svg t="1780901032704" class="icon" viewBox="0 0 1024 1024" version="1.1" xmlns="http://www.w3.org/2000/svg" p-id="38079" xmlns:xlink="http://www.w3.org/1999/xlink" width="200" height="200"><path d="M444.362 916.022a419.84 419.84 0 0 0 122.126 0 254.707 254.707 0 0 1 107.33-121.506 255.488 255.488 0 0 1 158.37-32.283 414.1 414.1 0 0 0 61.44-105.903 254.868 254.868 0 0 1 0-306.984 414.504 414.504 0 0 0-61.412-105.93 255.865 255.865 0 0 1-158.397-32.283 254.653 254.653 0 0 1-107.331-121.48 416.067 416.067 0 0 0-122.153 0 254.518 254.518 0 0 1-107.331 121.48 255.515 255.515 0 0 1-158.343 32.283 413.804 413.804 0 0 0-61.44 105.93 254.814 254.814 0 0 1 0 306.93 413.965 413.965 0 0 0 61.44 105.984 255.11 255.11 0 0 1 158.343 32.256A254.464 254.464 0 0 1 444.335 916.05z m61.063 85.315c-33.092 0-66.372-3.314-98.897-9.836l-23.444-4.742-7.195-22.852a174.403 174.403 0 0 0-79.306-99.382 174.323 174.323 0 0 0-125.279-19.105l-23.228 5.12-15.764-17.785A494.915 494.915 0 0 1 32.984 661.18l-7.546-22.636 16.088-17.57A174.35 174.35 0 0 0 87.74 502.838 174.592 174.592 0 0 0 41.526 384.62l-16.088-17.543 7.546-22.636a495.104 495.104 0 0 1 99.355-171.547l15.764-17.785 23.228 5.12a174 174 0 0 0 125.252-19.133 174.484 174.484 0 0 0 79.333-99.328l7.168-22.824 23.444-4.743a503.43 503.43 0 0 1 197.794 0l23.444 4.743 7.168 22.824a174.269 174.269 0 0 0 204.584 118.434l23.229-5.12 15.764 17.812a495.293 495.293 0 0 1 99.355 171.574l7.572 22.61-16.141 17.542a174.484 174.484 0 0 0-46.215 118.218c0 43.709 16.438 85.72 46.242 118.218l16.114 17.543-7.545 22.636a495.158 495.158 0 0 1-99.382 171.52l-15.764 17.785-23.175-5.12a174.35 174.35 0 0 0-125.305 19.132 174.619 174.619 0 0 0-79.36 99.382l-7.141 22.798-23.444 4.77a502.434 502.434 0 0 1-98.897 9.862z m0-619.79a121.398 121.398 0 0 0-121.263 121.264c0 66.883 54.433 121.263 121.263 121.263 66.856 0 121.263-54.38 121.263-121.263 0-66.83-54.407-121.263-121.263-121.263z m0 323.37c-111.454 0-202.105-90.625-202.105-202.106 0-111.454 90.65-202.105 202.105-202.105S707.53 391.356 707.53 502.81c0 111.481-90.65 202.105-202.105 202.105z" p-id="38080" fill="currentColor"></path></svg>