<?xml version="1.0" standalone="no"?><!DOCTYPE svg PUBLIC "-//W3C//DTD SVG 1.1//EN" "http://www.w3.org/Graphics/SVG/1.1/DTD/svg11.dtd"><svg t="1780900838444" class="icon" viewBox="0 0 1024 1024" version="1.1" xmlns="http://www.w3.org/2000/svg" p-id="26028" xmlns:xlink="http://www.w3.org/1999/xlink" width="200" height="200"><path d="M151.5 382.3h149.3c16.8 0 28.6-11.1 28.6-27 0-14.7-10.7-29.9-28.6-29.9H151.5c-15.4 0-25.8 15.5-25.8 29.9 0 15.4 11.1 27 25.8 27z m166.9-62.9c5.5 5.7 12.6 8.5 19.8 8.5 7.2 0 14.3-2.8 19.8-8.6 5.2-5.5 8.1-12.8 8.1-20.7s-2.9-15.2-8.1-20.7L252.9 168c-10.7-11.3-28.2-11.4-39.1-0.5-4.7 3.6-7.8 9.4-8.4 16-0.8 8.3 2.2 16.9 7.9 22.9l105.1 113z m70.9-35.6c14.7 0 25.8-11.7 25.8-27.1V97.4c0-15.4-11.1-27-25.8-27-13.8 0-28.6 10.9-28.6 27v159.2c0 16.3 14.8 27.2 28.6 27.2z m516.9 334H756.9c-15.4 0-25.8 15.5-25.8 29.9 0 15.4 11.1 27 25.8 27h149.2c13.8 0 28.7-10.9 28.7-27 0-15.4-13.9-29.9-28.6-29.9z m-166.8 65.7c-10.7-11.3-28.9-11.3-39.6 0-10.9 11.4-10.9 30 0.1 41.5l107.8 110c5.4 5.7 11.9 8.5 18.4 8.5 6.5 0 13-2.8 18.4-8.5 10.9-11.4 10.9-30 0-41.4L739.4 683.5z m-68.2 32.7c-17.9 0-28.6 15.2-28.6 29.9v156.4c0 14.7 10.7 29.9 28.6 29.9 15.4 0 25.8-15.5 25.8-29.9V746.2c0-14.5-10.3-30-25.8-30z m-356.1 2.4l0.5 0.6 0.6 0.5c8.1 6.7 17.8 10.1 27.2 10.1 9.6 0 18.9-3.5 25.7-10.6l340-356.3c13.5-14.1 13.5-41.8 0-55.9-13.5-14.1-39.9-14.1-53.4 0l-340 356.2c-13.4 14-13.6 38.3-0.6 55.4z m454.7-187.8l140.9-144.7c32.5-34 50.1-79 49.6-126.6-0.5-46.1-18.1-88.8-49.5-120.5l-19.1-22.9-0.3-0.3c-32-33.5-74.1-51.9-118.9-51.9h-1.8c-44.1 0.5-85 18.9-115.2 52L514.7 263.5C490 287.9 474 320.2 468.2 357c-5.3 34.2-1.1 70.6 11.8 102.3l3.8 9.2 48.1-50.4-0.9-3.7c-10.2-42.8 5-96.2 37-129.7l107.7-112.9c23.3-23 57.4-38.8 91.2-42.3 35.9-3.7 67.1 6.1 87.7 27.7l16.5 17.3c42.5 47.2 35.9 138.2-13.6 187.3L749.6 475c-36.4 38.1-97.3 49.6-144.9 27.5l-4.2-2-44.2 49.8 6.2 4.4c26.9 19.2 58.1 28.6 89.4 28.6 43.3 0.1 86.5-17.9 117.9-52.5zM540.5 558l-47.8 50 0.9 3.7c10.7 44.9-3.7 94.6-36.8 126.6l-108 116c-25 26.2-63.9 42.5-101.5 42.5-30.8 0-58.3-11-77.3-30.9l-16.6-17.4c-20.6-21.6-30-54.1-26.5-91.5 3.4-35.3 18.4-70 40.3-93L275 548.2c36-37.7 99.6-49.8 144.7-27.6l4 1.9 48-46.8-7-4.7c-65.9-44.9-152.2-36.2-209.8 21.1L113.8 640c-32.5 34.1-50.1 79-49.6 126.6 0.5 46.1 18.1 88.9 49.6 120.5l22.1 23.2C166.5 942.4 208 960 252.8 960c44.7 0 86.9-17.6 118.8-49.6L510 762.6c25-26.2 41.4-58.9 47.4-94.5 5.8-34.8 1.4-69.9-13-101.4l-3.9-8.7z" fill="currentColor" p-id="26029"></path></svg>